<?xml version="1.0" encoding="UTF-8" standalone="no"?><!DOCTYPE svg PUBLIC "-//W3C//DTD SVG 1.1//EN" "http://www.w3.org/Graphics/SVG/1.1/DTD/svg11.dtd"><svg width="100%" height="100%" viewBox="0 0 7788 2475" version="1.1" xmlns="http://www.w3.org/2000/svg" xmlns:xlink="http://www.w3.org/1999/xlink" xml:space="preserve" xmlns:serif="http://www.serif.com/" style="fill-rule:evenodd;clip-rule:evenodd;stroke-linejoin:round;stroke-miterlimit:2;"><g id="Page-1" serif:id="Page 1"><rect x="-1300" y="-1908.333" width="10334.654" height="6236.06" style="fill:none;"/><g id="Layer-1" serif:id="Layer 1"><g><path d="M2689.625,1487.71c0,19.219 15.59,34.809 34.809,34.809l205.243,0c41.285,0 73.333,-10.677 96.146,-32.066c22.795,-21.337 34.219,-51.58 34.219,-90.694c0,-38.368 -11.424,-67.865 -34.219,-88.524c-22.813,-20.642 -54.861,-30.972 -96.146,-30.972l-205.243,0c-19.219,0 -34.809,15.59 -34.809,34.826l0,172.622Zm0,-340.017c0,19.236 15.59,34.826 34.809,34.826l186.788,0c32.569,0 59.74,-9.236 81.458,-27.691c21.719,-18.49 32.587,-45.104 32.587,-79.861c0,-39.097 -9.774,-66.597 -29.323,-82.552c-19.549,-15.92 -47.795,-23.906 -84.722,-23.906l-186.788,0c-19.219,0 -34.809,15.59 -34.809,34.809l0,144.375Zm-135.781,-255.174c0,-19.219 15.59,-34.809 34.809,-34.809l342.118,0c69.531,0 125.278,15.955 167.274,47.813c41.997,31.875 63.003,80.017 63.003,144.462c0,39.115 -9.601,72.604 -28.785,100.503c-19.201,27.865 -46.545,49.41 -81.997,64.618l0,2.17c47.778,10.156 83.976,32.778 108.611,67.899c24.618,35.139 36.927,79.132 36.927,131.962c0,30.434 -5.417,58.854 -16.285,85.295c-10.868,26.424 -27.882,49.236 -51.042,68.438c-23.194,19.201 -52.882,34.375 -89.08,45.608c-36.233,11.25 -79.306,16.84 -129.271,16.84l-321.476,0c-19.219,0 -34.809,-15.59 -34.809,-34.809l0,-705.99Z" style="fill:#ea6624;fill-rule:nonzero;"/></g><g><path d="M3340.169,1071.716l38.229,0c21.545,0 38.993,17.465 38.993,38.993l0,69.635l2.188,0c3.611,-15.208 10.66,-30.035 21.181,-44.531c10.486,-14.479 23.16,-27.726 38.021,-39.653c14.826,-11.944 31.319,-21.563 49.41,-28.785c18.108,-7.24 36.58,-10.868 55.399,-10.868c6.111,0 15.399,0.573 24.097,1.25c12.76,1.007 22.622,11.615 22.622,24.41l0,69.635c0,14.566 -12.639,25.903 -27.118,24.323c-11.076,-1.215 -22.205,-2.309 -26.111,-2.309c-21.007,0 -40.729,4.167 -59.201,12.5c-18.472,8.333 -34.583,20.642 -48.333,36.944c-13.767,16.285 -24.618,36.389 -32.587,60.278c-7.986,23.906 -11.962,51.424 -11.962,82.552l0,228.229c0,21.545 -17.448,38.993 -38.993,38.993l-45.833,0c-21.545,0 -38.993,-17.448 -38.993,-38.993l0,-483.611c0,-21.528 17.448,-38.993 38.993,-38.993" style="fill:#ea6624;fill-rule:nonzero;"/></g><g><path d="M6342.714,1071.716l29.184,0c24.045,0 43.524,19.479 43.524,43.524l0,65.104l2.17,0c3.611,-15.208 10.677,-30.035 21.181,-44.531c10.503,-14.479 23.177,-27.726 38.038,-39.653c14.809,-11.944 31.302,-21.563 49.41,-28.785c18.09,-7.24 36.563,-10.868 55.399,-10.868c6.111,0 15.399,0.573 24.08,1.25c12.778,1.007 22.639,11.615 22.639,24.41l0,69.635c0,14.566 -12.656,25.903 -27.135,24.323c-11.076,-1.215 -22.205,-2.309 -26.094,-2.309c-21.007,0 -40.729,4.167 -59.201,12.5c-18.472,8.333 -34.601,20.642 -48.351,36.944c-13.767,16.285 -24.618,36.389 -32.569,60.278c-7.986,23.906 -11.962,51.424 -11.962,82.552l0,223.715c0,24.028 -19.479,43.507 -43.524,43.507l-36.788,0c-24.028,0 -43.524,-19.479 -43.524,-43.507l0,-474.566c0,-24.045 19.497,-43.524 43.524,-43.524" style="fill:#ea6624;fill-rule:nonzero;"/></g><g><path d="M3725.301,1071.716l46.823,0c21.267,0 38.507,17.24 38.507,38.507l0,484.583c0,21.267 -17.24,38.507 -38.507,38.507l-46.823,0c-21.267,0 -38.507,-17.24 -38.507,-38.507l0,-484.583c0,-21.267 17.24,-38.507 38.507,-38.507m0,-214.01l46.823,0c21.267,0 38.507,17.257 38.507,38.507l0,40.313c0,21.267 -17.24,38.507 -38.507,38.507l-46.823,0c-21.267,0 -38.507,-17.24 -38.507,-38.507l0,-40.313c0,-21.25 17.24,-38.507 38.507,-38.507" style="fill:#ea6624;fill-rule:nonzero;"/></g><g><path d="M4189.717,1535.561c27.517,0 50.868,-5.59 70.052,-16.84c19.184,-11.233 34.774,-26.094 46.719,-44.549c11.962,-18.455 20.642,-39.462 26.076,-62.986c5.417,-23.542 8.142,-47.274 8.142,-71.163c0,-23.889 -2.899,-47.066 -8.681,-69.514c-5.816,-22.448 -14.67,-42.361 -26.615,-59.74c-11.962,-17.396 -27.535,-31.146 -46.719,-41.302c-19.184,-10.122 -42.188,-15.208 -68.976,-15.208c-27.535,0 -50.694,5.816 -69.514,17.396c-18.854,11.597 -34.045,26.597 -45.625,45.087c-11.597,18.455 -19.931,39.479 -25,62.986c-5.069,23.559 -7.604,46.892 -7.604,70.087c0,23.177 2.899,45.799 8.698,67.865c5.799,22.118 14.67,41.823 26.615,59.201c11.944,17.396 27.153,31.51 45.625,42.361c18.455,10.868 40.729,16.319 66.806,16.319m274.826,68.438c0,84.722 -23.733,147.882 -71.163,189.531c-47.431,41.649 -115.677,62.483 -204.757,62.483c-28.229,0 -56.667,-2.917 -85.26,-8.698c-28.628,-5.799 -54.688,-15.59 -78.212,-29.323c-23.542,-13.767 -43.281,-31.875 -59.201,-54.323c-7.396,-10.417 -13.385,-21.944 -17.986,-34.549c-8.472,-23.299 9.583,-47.986 34.375,-47.986l52.622,0c15.139,0 27.865,9.74 33.906,23.611c3.09,7.066 6.788,13.316 11.146,18.75c8.681,10.851 19.01,19.34 30.955,25.503c11.944,6.163 25.156,10.156 39.653,11.962c14.462,1.788 29.67,2.708 45.608,2.708c49.965,0 86.528,-12.326 109.722,-36.944c23.177,-24.618 34.757,-60.087 34.757,-106.441l0,-85.816l-2.17,0c-17.743,31.806 -42.083,56.389 -73.038,73.854c-30.938,17.448 -86.997,26.701 -122.413,23.993c-33.385,-2.552 -62.552,-10 -87.517,-22.361c-31.51,-15.538 -57.569,-36.91 -78.212,-64.097c-20.642,-27.135 -35.677,-58.455 -45.087,-93.941c-9.427,-35.486 -14.115,-73.507 -14.115,-114.08c0,-37.622 5.781,-73.49 17.378,-107.517c11.58,-34.028 28.247,-63.906 49.965,-89.635c21.736,-25.677 48.333,-46.163 79.844,-61.372c31.493,-15.191 67.153,-22.813 106.997,-22.813c35.469,0 68.056,7.448 97.76,22.274c29.688,14.844 52.5,38.212 68.438,70.069l2.17,0l0,-40.972c0,-19.965 16.198,-36.146 36.163,-36.146l51.528,0c19.965,0 36.146,16.181 36.146,36.146l0,496.129Z" style="fill:#ea6624;fill-rule:nonzero;"/></g><g><path d="M4631.973,857.712l38.785,0c23.49,0 42.535,19.045 42.535,42.517l0,245.347l2.17,0c15.208,-25.347 37.83,-46.51 67.882,-63.524c30.052,-17.031 63.559,-25.556 100.486,-25.556c61.545,0 110.052,15.938 145.556,47.813c35.469,31.875 53.229,79.653 53.229,143.385l0,343.108c0,23.472 -19.045,42.517 -42.535,42.517l-38.785,0c-23.472,0 -42.517,-19.045 -42.517,-42.517l0,-310.538c-1.458,-44.149 -10.868,-76.198 -28.229,-96.111c-17.396,-19.913 -44.549,-29.896 -81.476,-29.896c-21.024,0 -39.844,3.819 -56.493,11.406c-16.667,7.622 -30.781,18.125 -42.361,31.528c-11.58,13.385 -20.642,29.132 -27.153,47.24c-6.528,18.09 -9.774,37.292 -9.774,57.569l0,288.802c0,23.472 -19.045,42.517 -42.535,42.517l-38.785,0c-23.49,0 -42.517,-19.045 -42.517,-42.517l0,-690.573c0,-23.472 19.028,-42.517 42.517,-42.517" style="fill:#ea6624;fill-rule:nonzero;"/></g><g><path d="M5180.45,1071.716l69.427,0l0,-132.326c0,-19.896 16.128,-36.042 36.042,-36.042l51.736,0c19.913,0 36.059,16.146 36.059,36.042l0,132.326l87.899,0c13.247,0 23.993,10.747 23.993,23.993l0,44.358c0,13.247 -10.747,23.993 -23.993,23.993l-87.899,0l0,299.792c0,13.038 0.538,24.288 1.632,33.698c1.076,9.41 3.611,17.361 7.604,23.872c3.976,6.528 9.948,11.424 17.917,14.67c7.969,3.247 18.837,4.896 32.587,4.896c3.837,0 12.795,-0.434 22.344,-1.094c16.128,-1.128 29.809,11.771 29.809,27.934l0,38.993c0,14.479 -11.007,26.563 -25.417,27.882c-20.521,1.892 -46.024,4.028 -54.965,4.028c-32.604,0 -58.854,-3.056 -78.75,-9.219c-19.931,-6.128 -35.503,-15.208 -46.736,-27.153c-11.233,-11.927 -18.819,-26.962 -22.795,-45.069c-3.993,-18.09 -6.354,-38.75 -7.066,-61.91l0,-331.319l-69.427,0c-13.247,0 -23.993,-10.747 -23.993,-23.993l0,-44.358c0,-13.247 10.747,-23.993 23.993,-23.993" style="fill:#ea6624;fill-rule:nonzero;"/></g><g><path d="M5751.726,1324.802l236.806,0l-94.41,-263.472c-8.385,-23.385 -41.51,-23.299 -49.757,0.156l-92.639,263.316Zm103.125,-467.083l33.872,0c33.299,0 63.16,20.486 75.139,51.563l253.854,659.149c12.049,31.267 -11.024,64.896 -44.531,64.896l-42.309,0c-20.208,0 -38.229,-12.743 -44.983,-31.788l-61.51,-173.524l-309.583,0l-61.51,173.524c-6.753,19.045 -24.774,31.788 -44.983,31.788l-36.979,0c-33.49,0 -56.563,-33.576 -44.566,-64.844l252.934,-659.097c11.944,-31.128 41.823,-51.667 75.156,-51.667" style="fill:#ea6624;fill-rule:nonzero;"/></g><g><path d="M6730.631,857.712l32.188,0c25.295,0 45.816,20.521 45.816,45.833l0,395.208l210.313,-213.385c8.611,-8.733 20.365,-13.646 32.639,-13.646l18.941,0c41.285,0 61.528,50.295 31.736,78.889l-132.865,127.483l188.507,284.063c20.208,30.451 -1.632,71.163 -38.194,71.163l-40.278,0c-15.747,0 -30.399,-8.09 -38.785,-21.424l-158.142,-251.215l-73.872,71.667l0,155.139c0,25.313 -20.521,45.833 -45.816,45.833l-32.188,0c-25.313,0 -45.833,-20.521 -45.833,-45.833l0,-683.941c0,-25.313 20.521,-45.833 45.833,-45.833" style="fill:#ea6624;fill-rule:nonzero;"/></g><g><path d="M7245.148,851.038c-47.396,0 -85.955,38.559 -85.955,85.955c0,47.396 38.559,85.972 85.955,85.972c47.396,0 85.955,-38.576 85.955,-85.972c0,-47.396 -38.559,-85.955 -85.955,-85.955m0,154.74c-37.917,0 -68.767,-30.851 -68.767,-68.785c0,-37.917 30.851,-68.75 68.767,-68.75c37.917,0 68.767,30.833 68.767,68.75c0,37.934 -30.851,68.785 -68.767,68.785" style="fill:#ea6624;fill-rule:nonzero;"/></g><g><path d="M7246.046,892.299l-31.84,0l0,89.392l14.306,0l0,-26.389l24.219,0l15.122,26.389l15.122,0l-17.274,-30.885c26.458,-11.858 26.458,-58.507 -19.653,-58.507m1.736,51.58l-19.132,0l0,-40.156l19.132,0c30.451,0 30.451,40.156 0,40.156" style="fill:#ea6624;fill-rule:nonzero;"/></g><g><path d="M1089.981,1710.45c66.319,31.771 121.372,62.222 143.125,154.878l39.063,178.837c6.042,24.167 43.837,20.538 43.837,-8.455l0,-238.542c0,-114.306 -59.253,-172.24 -161.58,-221.267" style="fill:#ea6624;fill-rule:nonzero;"/></g><g><path d="M1330.625,650.88c-73.542,0 -136.337,-3.698 -195.972,-77.865l-112.5,-144.41c-15.885,-19.184 -48.403,0.399 -35.885,26.563c48.385,101.024 77.205,161.181 103.038,215.139c49.392,103.09 127.847,129.757 241.319,129.757c113.472,0 191.944,-26.667 241.319,-129.757c25.833,-53.958 105.174,-217.049 153.715,-318.003c16.736,-34.792 -30.122,-62.604 -51.615,-20.469l-155.399,240.503c-39.861,75.59 -114.479,78.542 -188.021,78.542Z" style="fill:#ea6624;fill-rule:nonzero;"/></g><g><path d="M895.806,859.712c-45.972,57.396 -88.125,104.115 -183.281,104.288l-183.038,-2.483c-24.913,0.417 -29.948,38.038 -1.701,44.618c109.097,25.399 174.063,40.503 232.326,54.063c111.337,25.92 181.198,-18.663 252.135,-107.222c70.938,-88.576 99.184,-166.476 49.583,-269.479c-25.955,-53.889 -103.663,-217.76 -152.101,-318.767c-16.684,-34.826 -67.691,-15.642 -48.247,27.5l90.556,271.632c34.08,78.368 -10.26,138.455 -56.233,195.851Z" style="fill:#ea6624;fill-rule:nonzero;"/></g><g><path d="M787.49,1331.964c16.372,71.684 26.736,133.75 -32.292,208.385l-115.764,141.823c-15.174,19.757 11.163,47.101 33.889,29.063c87.726,-69.653 139.948,-111.128 186.806,-148.333c89.514,-71.076 98.038,-153.507 72.795,-264.132c-25.243,-110.625 -68.698,-181.198 -180.191,-206.406c-58.351,-13.177 -235.017,-54.236 -344.236,-79.097c-37.639,-8.576 -54.323,43.299 -8.455,54.878l269.028,97.986c82.569,22.049 102.049,94.132 118.42,165.833Z" style="fill:#ea6624;fill-rule:nonzero;"/></g><g><path d="M1089.979,1710.448c66.319,31.771 121.372,62.222 143.125,154.878l39.063,178.837c6.042,24.167 43.837,20.538 43.837,-8.455l0,-238.542c0,-114.306 -59.253,-172.24 -161.58,-221.267c-102.344,-49.01 -184.635,-58.872 -273.698,12.795c-46.615,37.5 -188.611,150.313 -276.007,220.382c-30.122,24.149 0.122,69.479 37.726,40.764l244.045,-149.774c68.594,-50.955 137.17,-21.389 203.49,10.382Z" style="fill:#ea6624;fill-rule:nonzero;"/></g><g><path d="M1571.276,1710.446c66.319,-31.771 124.566,-55.556 210.382,-14.444l163.837,81.667c22.622,10.434 43.49,-21.285 20.885,-39.462c-87.274,-70.226 -139.236,-112.014 -185.851,-149.514c-89.08,-71.667 -171.354,-61.806 -273.698,-12.795c-102.326,49.028 -161.597,106.962 -161.597,221.267c0,59.826 -1.094,241.181 -1.267,353.212c-0.069,38.611 54.201,43.455 55.399,-3.854l36.267,-284.028c3.299,-85.382 69.323,-120.278 135.642,-152.049Z" style="fill:#ea6624;fill-rule:nonzero;"/></g><g><path d="M1873.762,1331.959c16.354,-71.684 33.941,-132.101 119.514,-173.75l165.833,-77.535c22.24,-11.215 10.365,-47.292 -17.917,-40.885c-109.271,24.688 -174.323,39.392 -232.674,52.587c-111.493,25.191 -154.948,95.764 -180.191,206.389c-25.26,110.625 -16.719,193.056 72.795,264.149c46.858,37.188 188.212,150.833 275.816,220.625c30.191,24.063 67.743,-15.434 31.441,-45.781l-199.878,-205.017c-64.826,-55.677 -51.111,-129.08 -34.74,-200.781Z" style="fill:#ea6624;fill-rule:nonzero;"/></g><g><path d="M1765.445,859.709c-45.972,-57.396 -82.344,-108.733 -61.753,-201.632l42.396,-178.09c5.035,-24.392 -30.59,-37.535 -43.16,-11.406c-48.611,100.938 -77.552,161.024 -103.507,214.931c-49.601,102.986 -21.337,180.903 49.601,269.462c70.938,88.559 140.781,133.142 252.118,107.24c58.281,-13.576 235.156,-53.611 344.306,-78.819c37.604,-8.698 30.035,-62.656 -16.302,-53.09l-284.861,29.045c-83.906,16.146 -132.865,-40.243 -178.837,-97.639Z" style="fill:#ea6624;fill-rule:nonzero;"/></g><g><path d="M713.439,918.905c-0.417,-1.875 0,0 0,0" style="fill:#ea6624;fill-rule:nonzero;"/></g></g></g></svg>